<svg width="222" height="190" viewBox="0 0 222 190" fill="none" xmlns="http://www.w3.org/2000/svg">
<circle cx="111" cy="95" r="92.5" stroke="#876B94" stroke-width="5" stroke-linejoin="round"/>
<circle cx="111" cy="95" r="86" fill="url(#paint0_radial_40_37)"/>
<g filter="url(#filter0_i_40_37)">
<path d="M111 147V55.4368C123.048 50.35 149.771 40.8303 160.286 43.4464L160.601 48.3516C161.292 47.4796 164.694 47.9882 166.31 48.3516L166.518 52.7117C167.726 52.5301 170.581 52.2757 172.333 52.7117L173.402 74.5125C174.257 72.3324 177.062 72.1507 178.357 72.3324L180 124.109C142.762 124.109 127.246 139.37 124.143 147H111Z" fill="#F0DDE5"/>
<path d="M111 147V55.4368C123.048 50.35 149.771 40.8303 160.286 43.4464L160.601 48.3516M111 147C112.314 126.507 147.325 114.844 164.667 111.574L160.601 48.3516M111 147C117.937 137.19 139.367 117.46 169.595 117.024L166.518 52.7117M111 147C132.029 126.943 162.841 120.476 175.619 119.749L173.402 74.5125M111 147H124.143C127.246 139.37 142.762 124.109 180 124.109L178.357 72.3324C177.062 72.1507 174.257 72.3324 173.402 74.5125M160.601 48.3516C161.292 47.4796 164.694 47.9882 166.31 48.3516L166.518 52.7117M166.518 52.7117C167.726 52.5301 170.581 52.2757 172.333 52.7117L173.402 74.5125" stroke="#613F75" stroke-width="2"/>
<path d="M111 147V55.4368C98.9524 50.35 72.2286 40.8303 61.7143 43.4464L61.3989 48.3516C60.7084 47.4796 57.3056 47.9882 55.6905 48.3516L55.4819 52.7117C54.2736 52.5301 51.419 52.2757 49.6667 52.7117L48.5981 74.5125C47.7433 72.3324 44.9384 72.1507 43.6429 72.3324L42 124.109C79.2381 124.109 94.754 139.37 97.8571 147H111Z" fill="#F0DDE5"/>
<path d="M111 147V55.4368C98.9524 50.35 72.2286 40.8303 61.7143 43.4464L61.3989 48.3516M111 147C109.686 126.507 74.6746 114.844 57.3333 111.574L61.3989 48.3516M111 147C104.063 137.19 82.6333 117.46 52.4048 117.024L55.4819 52.7117M111 147C89.9714 126.943 59.1587 120.476 46.381 119.749L48.5981 74.5125M111 147H97.8571C94.754 139.37 79.2381 124.109 42 124.109L43.6429 72.3324C44.9384 72.1507 47.7433 72.3324 48.5981 74.5125M61.3989 48.3516C60.7084 47.4796 57.3056 47.9882 55.6905 48.3516L55.4819 52.7117M55.4819 52.7117C54.2736 52.5301 51.419 52.2757 49.6667 52.7117L48.5981 74.5125" stroke="#613F75" stroke-width="2"/>
</g>
<g filter="url(#filter1_i_40_37)">
<path d="M118.336 179.117C117.33 177.785 118.236 173.326 125.885 166.137C133.534 158.949 137.459 156.878 142.994 153.158C150.039 149.248 160.104 145.17 162.62 144.172C174.697 138.681 178.723 136.185 183.252 130.693C185.914 127.465 186.775 126.7 190.8 117.714C193.611 108.382 193.316 100.741 193.316 98.9704C193.316 96.9734 193.316 92.3272 191.807 85.7648C190.199 78.7759 189.323 77.951 187.778 74.01C183.753 65.0243 180.23 56.0385 179.224 53.0433C176.71 44.3307 176.961 43.2022 177.677 33.075C177.689 30.9117 177.815 25.6867 178.217 22.0924C178.62 18.4981 181.74 13.2731 183.249 11.1099C184.927 8.78025 188.181 6.41733 187.778 15.6027C187.376 24.7881 182.914 30.7454 180.733 32.5758C181.23 42.1554 179.296 44.5323 183.873 54.9489C183.761 54.0454 184.18 52.1023 186.269 48.5504C189.087 43.758 193.314 38.067 195.327 34.5726C197.843 29.0813 201.869 27.0845 201.869 35.0718C201.869 44.6566 200.359 48.5504 197.843 50.5472C194.859 52.9151 194.32 53.5425 191.804 56.0385C188.558 59.2583 187.493 62.1954 187.098 63.0274C189.223 67.5488 190.421 70.1605 193.82 77.2783C194.579 79.0113 195.243 81.0854 195.742 83.3472C195.261 80.5844 196.143 74.3193 201.869 69.0179C209.92 61.5631 210.927 54.0417 211.43 46.5536C214.952 48.7168 220.488 56.0385 218.978 63.0274C217.361 70.5155 213.443 74.5092 207.404 80.0004C202.573 84.3934 198.809 90.151 197.531 92.4806C198.157 99.9616 197.91 107.34 197.34 110.452C197.042 112.519 196.216 115.953 194.688 119.937C196.592 116.742 198.187 114.197 199.856 111.95C203.475 107.077 208.914 101.466 210.927 98.9704C213.6 95.6554 217.636 89.1526 218.978 85.9909C220.488 86.9893 223.104 91.3823 221.494 100.967C219.984 109.953 217.972 115.444 213.443 118.939C208.914 122.433 193.9 130.194 187.275 132.191C186.421 133.381 184.373 135.673 183.252 136.684C177.717 141.676 177.717 141.676 168.452 146.736C171.106 146.61 178.72 146.395 187.275 145.896C194.823 145.397 195.83 145.397 200.862 145.397C208.914 144.897 211.765 142.068 213.946 139.905C213.778 142.068 213.443 147.393 210.927 152.885C208.41 158.875 204.888 160.872 200.862 162.37C194.32 164.366 190.999 164.566 185.765 163.368C180.532 162.17 175.198 158.376 172.682 156.878L161.611 149.248C157.588 150.662 155.072 151.66 151.046 153.657C144.504 157.151 143.497 158.15 138.968 161.145C141.485 161.145 141.988 161.207 145.51 161.644C149.536 162.143 152.857 163.541 156.078 165.139C160.104 167.136 164.129 170.63 168.155 173.126C176.207 178.118 183.755 180.67 178.22 183.11C169.162 187.104 164.633 186.105 158.091 185.107C154.401 183.609 146.014 179.516 141.988 175.123C137.962 170.73 133.446 167.968 131.691 167.136C125.107 172.604 123.688 176.486 123.369 177.12C121.859 180.115 119.846 180.614 118.336 179.117Z" fill="#613F75"/>
</g>
<g filter="url(#filter2_i_40_37)">
<path d="M103.664 179.117C104.67 177.785 103.764 173.326 96.1153 166.137C88.4663 158.949 84.5413 156.878 79.0058 153.158C71.9607 149.248 61.8962 145.17 59.3801 144.172C47.3027 138.681 43.277 136.185 38.748 130.693C36.0856 127.465 35.2254 126.7 31.1997 117.714C28.3886 108.382 28.6836 100.741 28.6836 98.9704C28.6836 96.9734 28.6836 92.3272 30.1932 85.7648C31.801 78.7759 32.6767 77.951 34.2217 74.01C38.2474 65.0243 41.77 56.0385 42.7764 53.0433C45.2899 44.3307 45.0386 43.2022 44.3231 33.075C44.3107 30.9117 44.1854 25.6867 43.7829 22.0924C43.3803 18.4981 40.2603 13.2731 38.7506 11.1099C37.0732 8.78025 33.8191 6.41733 34.2217 15.6027C34.6242 24.7881 39.0861 30.7454 41.2668 32.5758C40.7701 42.1554 42.7036 44.5323 38.1273 54.9489C38.2388 54.0454 37.8199 52.1023 35.7313 48.5504C32.9133 43.758 28.6862 38.067 26.6733 34.5726C24.1572 29.0813 20.1315 27.0845 20.1315 35.0718C20.1315 44.6566 21.6411 48.5504 24.1572 50.5472C27.1409 52.9151 27.6798 53.5425 30.1959 56.0385C33.4416 59.2583 34.5072 62.1954 34.9015 63.0274C32.7768 67.5488 31.579 70.1605 28.1804 77.2783C27.4208 79.0113 26.7567 81.0854 26.2579 83.3472C26.7386 80.5844 25.8572 74.3193 20.1315 69.0179C12.0799 61.5631 11.0735 54.0417 10.5703 46.5536C7.04772 48.7168 1.51229 56.0385 3.02196 63.0274C4.63945 70.5155 8.55739 74.5092 14.596 80.0004C19.427 84.3934 23.1908 90.151 24.4688 92.4806C23.8429 99.9616 24.09 107.34 24.6605 110.452C24.958 112.519 25.7835 115.953 27.3125 119.937C25.4083 116.742 23.8134 114.197 22.1444 111.95C18.5254 107.077 13.0864 101.466 11.0735 98.9704C8.40012 95.6554 4.36388 89.1526 3.02196 85.9909C1.51229 86.9893 -1.10445 91.3823 0.505852 100.967C2.01552 109.953 4.0284 115.444 8.55739 118.939C13.0864 122.433 28.1 130.194 34.7249 132.191C35.5793 133.381 37.6274 135.673 38.748 136.684C44.2834 141.676 44.2834 141.676 53.5483 146.736C50.8937 146.61 43.2796 146.395 34.7249 145.896C27.1766 145.397 26.1701 145.397 21.1379 145.397C13.0864 144.897 10.2348 142.068 8.05417 139.905C8.22191 142.068 8.55739 147.393 11.0735 152.885C13.5896 158.875 17.1121 160.872 21.1379 162.37C27.6798 164.366 31.001 164.566 36.2345 163.368C41.468 162.17 46.8022 158.376 49.3183 156.878L60.3891 149.248C64.4124 150.662 66.9285 151.66 70.9543 153.657C77.4961 157.151 78.5026 158.15 83.0316 161.145C80.5154 161.145 80.0122 161.207 76.4897 161.644C72.4639 162.143 69.1427 163.541 65.9221 165.139C61.8963 167.136 57.8705 170.63 53.8448 173.126C45.7932 178.118 38.2449 180.67 43.7803 183.11C52.8383 187.104 57.3673 186.105 63.9092 185.107C67.5995 183.609 75.9865 179.516 80.0122 175.123C84.038 170.73 88.5539 167.968 90.3086 167.136C96.893 172.604 98.3121 176.486 98.6314 177.12C100.141 180.115 102.154 180.614 103.664 179.117Z" fill="#613F75"/>
</g>
<defs>
<filter id="filter0_i_40_37" x="40.9678" y="42" width="140.064" height="108" filterUnits="userSpaceOnUse" color-interpolation-filters="sRGB">
<feFlood flood-opacity="0" result="BackgroundImageFix"/>
<feBlend mode="normal" in="SourceGraphic" in2="BackgroundImageFix" result="shape"/>
<feColorMatrix in="SourceAlpha" type="matrix" values="0 0 0 0 0 0 0 0 0 0 0 0 0 0 0 0 0 0 127 0" result="hardAlpha"/>
<feOffset dy="2"/>
<feGaussianBlur stdDeviation="5"/>
<feComposite in2="hardAlpha" operator="arithmetic" k2="-1" k3="1"/>
<feColorMatrix type="matrix" values="0 0 0 0 0.380392 0 0 0 0 0.247059 0 0 0 0 0.458824 0 0 0 0.25 0"/>
<feBlend mode="normal" in2="shape" result="effect1_innerShadow_40_37"/>
</filter>
<filter id="filter1_i_40_37" x="117" y="9" width="105" height="178" filterUnits="userSpaceOnUse" color-interpolation-filters="sRGB">
<feFlood flood-opacity="0" result="BackgroundImageFix"/>
<feBlend mode="normal" in="SourceGraphic" in2="BackgroundImageFix" result="shape"/>
<feColorMatrix in="SourceAlpha" type="matrix" values="0 0 0 0 0 0 0 0 0 0 0 0 0 0 0 0 0 0 127 0" result="hardAlpha"/>
<feOffset dx="-1" dy="1"/>
<feGaussianBlur stdDeviation="1"/>
<feComposite in2="hardAlpha" operator="arithmetic" k2="-1" k3="1"/>
<feColorMatrix type="matrix" values="0 0 0 0 0.968627 0 0 0 0 0.929412 0 0 0 0 0.945098 0 0 0 0.2 0"/>
<feBlend mode="normal" in2="shape" result="effect1_innerShadow_40_37"/>
</filter>
<filter id="filter2_i_40_37" x="-1" y="9" width="105" height="178" filterUnits="userSpaceOnUse" color-interpolation-filters="sRGB">
<feFlood flood-opacity="0" result="BackgroundImageFix"/>
<feBlend mode="normal" in="SourceGraphic" in2="BackgroundImageFix" result="shape"/>
<feColorMatrix in="SourceAlpha" type="matrix" values="0 0 0 0 0 0 0 0 0 0 0 0 0 0 0 0 0 0 127 0" result="hardAlpha"/>
<feOffset dx="-1" dy="1"/>
<feGaussianBlur stdDeviation="1"/>
<feComposite in2="hardAlpha" operator="arithmetic" k2="-1" k3="1"/>
<feColorMatrix type="matrix" values="0 0 0 0 0.968627 0 0 0 0 0.929412 0 0 0 0 0.945098 0 0 0 0.2 0"/>
<feBlend mode="normal" in2="shape" result="effect1_innerShadow_40_37"/>
</filter>
<radialGradient id="paint0_radial_40_37" cx="0" cy="0" r="1" gradientUnits="userSpaceOnUse" gradientTransform="translate(111 95) rotate(90) scale(86)">
<stop offset="0.884615" stop-color="#F7EDF1"/>
<stop offset="1" stop-color="#F0DDE5"/>
</radialGradient>
</defs>
</svg>
